<svg width="170" height="273" xmlns="http://www.w3.org/2000/svg" xmlns:xlink="http://www.w3.org/1999/xlink" overflow="hidden"><defs><clipPath id="clip0"><rect x="2115" y="1103" width="170" height="273"/></clipPath></defs><g clip-path="url(#clip0)" transform="translate(-2115 -1103)"><path d="M2284.44 1285.28C2282.1 1266.77 2280.77 1248.14 2280.44 1229.49 2280.44 1214.28 2281.13 1199.94 2282.15 1187.13 2285.61 1144.31 2253.6 1106.81 2210.66 1103.36 2209.63 1103.28 2208.61 1103.21 2207.59 1103.17 2205.12 1103.03 2202.61 1103 2200.02 1103 2197.43 1103 2194.91 1103.03 2192.42 1103.14 2149.38 1104.9 2115.91 1141.12 2117.68 1184.03 2117.72 1185.05 2117.78 1186.07 2117.86 1187.09 2118.87 1199.95 2119.57 1214.26 2119.57 1229.45 2119.26 1248.1 2117.93 1266.73 2115.57 1285.24 2110.29 1329.77 2142.22 1370.14 2186.89 1375.41 2188.97 1375.65 2191.06 1375.82 2193.16 1375.9 2195.38 1375.97 2197.67 1376 2200 1376 2202.34 1376 2204.6 1375.97 2206.85 1375.9 2251.79 1374.09 2286.75 1336.31 2284.93 1291.5 2284.85 1289.42 2284.68 1287.35 2284.44 1285.28ZM2259.92 1343.4C2246.58 1359.06 2227.23 1368.37 2206.64 1369.02 2204.45 1369.08 2202.26 1369.11 2200 1369.11 2197.74 1369.11 2195.51 1369.08 2193.39 1369.02 2172.79 1368.37 2153.43 1359.07 2140.09 1343.41 2126.45 1327.57 2120.05 1306.78 2122.43 1286.04 2124.83 1267.27 2126.19 1248.38 2126.48 1229.46 2126.48 1215.58 2125.89 1201.15 2124.75 1186.55 2121.59 1147.53 2150.75 1113.34 2189.89 1110.19 2190.83 1110.11 2191.77 1110.06 2192.71 1110.02 2194.84 1109.93 2197.23 1109.89 2200.02 1109.89 2202.99 1109.89 2205.2 1109.94 2207.34 1110.06 2246.57 1111.68 2277.05 1144.69 2275.43 1183.81 2275.39 1184.73 2275.33 1185.66 2275.26 1186.58 2274.11 1201.14 2273.53 1215.57 2273.53 1229.49 2273.84 1248.41 2275.19 1267.3 2277.58 1286.07 2279.96 1306.8 2273.56 1327.58 2259.92 1343.4Z" fill-rule="evenodd"/><path d="M2203.4 1155.26 2203.4 1127.43C2203.4 1125.54 2201.88 1124 2200 1124 2198.12 1124 2196.6 1125.54 2196.6 1127.43L2196.6 1155.26C2188.69 1156.9 2183.01 1163.93 2183 1172.09L2183 1206.43C2183.01 1214.59 2188.69 1221.62 2196.6 1223.27L2196.6 1278.57C2196.6 1280.46 2198.12 1282 2200 1282 2201.88 1282 2203.4 1280.46 2203.4 1278.57L2203.4 1223.27C2211.31 1221.62 2216.99 1214.59 2217 1206.43L2217 1172.09C2216.99 1163.93 2211.31 1156.9 2203.4 1155.26ZM2210.2 1206.43C2210.2 1212.13 2205.63 1216.74 2200 1216.74 2194.37 1216.74 2189.8 1212.13 2189.8 1206.43L2189.8 1172.09C2189.8 1166.4 2194.37 1161.78 2200 1161.78 2205.63 1161.78 2210.2 1166.4 2210.2 1172.09Z" fill-rule="evenodd"/></g></svg>